<svg width="1400" height="400" viewBox="0 0 1400 400" xmlns="http://www.w3.org/2000/svg">
  <!-- Left gray bars -->
  <rect x="20" y="180" width="30" height="40" rx="15" fill="#808080" opacity="0.15"/>
  <rect x="60" y="150" width="30" height="100" rx="15" fill="#808080" opacity="0.15"/>
  <rect x="100" y="120" width="30" height="160" rx="15" fill="#808080" opacity="0.15"/>
  <rect x="140" y="100" width="30" height="200" rx="15" fill="#808080" opacity="0.15"/>
  <rect x="180" y="80" width="30" height="240" rx="15" fill="#808080" opacity="0.15"/>
  <rect x="220" y="60" width="30" height="280" rx="15" fill="#808080" opacity="0.15"/>
  <rect x="260" y="90" width="30" height="220" rx="15" fill="#808080" opacity="0.15"/>
  <rect x="300" y="110" width="30" height="180" rx="15" fill="#808080" opacity="0.15"/>
  <rect x="340" y="140" width="30" height="120" rx="15" fill="#808080" opacity="0.15"/>
  
  <!-- Center red/maroon heart pattern -->
  <rect x="380" y="160" width="30" height="80" rx="15" fill="#922c1f" opacity="0.1"/>
  <rect x="420" y="120" width="30" height="160" rx="15" fill="#922c1f" opacity="0.1"/>
  <rect x="460" y="80" width="30" height="240" rx="15" fill="#922c1f" opacity="0.1"/>
  <rect x="500" y="40" width="30" height="320" rx="15" fill="#922c1f" opacity="0.1"/>
  <rect x="540" y="20" width="30" height="360" rx="15" fill="#922c1f" opacity="0.1"/>
  <rect x="580" y="80" width="30" height="240" rx="15" fill="#922c1f" opacity="0.1"/>
  <rect x="620" y="120" width="30" height="160" rx="15" fill="#922c1f" opacity="0.1"/>
  <rect x="660" y="90" width="30" height="220" rx="15" fill="#922c1f" opacity="0.1"/>
  <rect x="700" y="40" width="30" height="320" rx="15" fill="#922c1f" opacity="0.1"/>
  <rect x="740" y="20" width="30" height="360" rx="15" fill="#922c1f" opacity="0.1"/>
  <rect x="780" y="80" width="30" height="240" rx="15" fill="#922c1f" opacity="0.1"/>
  <rect x="820" y="120" width="30" height="160" rx="15" fill="#922c1f" opacity="0.1"/>
  <rect x="860" y="160" width="30" height="80" rx="15" fill="#922c1f" opacity="0.1"/>
  
  <!-- Right gray bars -->
  <rect x="900" y="140" width="30" height="120" rx="15" fill="#808080" opacity="0.15"/>
  <rect x="940" y="150" width="30" height="100" rx="15" fill="#808080" opacity="0.15"/>
  <rect x="980" y="110" width="30" height="180" rx="15" fill="#808080" opacity="0.15"/>
  <rect x="1020" y="80" width="30" height="240" rx="15" fill="#808080" opacity="0.15"/>
  <rect x="1060" y="90" width="30" height="220" rx="15" fill="#808080" opacity="0.15"/>
  <rect x="1100" y="120" width="30" height="160" rx="15" fill="#808080" opacity="0.15"/>
  <rect x="1140" y="100" width="30" height="200" rx="15" fill="#808080" opacity="0.15"/>
  <rect x="1180" y="80" width="30" height="240" rx="15" fill="#808080" opacity="0.15"/>
  <rect x="1220" y="60" width="30" height="280" rx="15" fill="#808080" opacity="0.15"/>
  <rect x="1260" y="100" width="30" height="200" rx="15" fill="#808080" opacity="0.15"/>
  <rect x="1300" y="120" width="30" height="160" rx="15" fill="#808080" opacity="0.15"/>
  <rect x="1340" y="180" width="30" height="40" rx="15" fill="#808080" opacity="0.15"/>
</svg>
